# AST/ASF file generated using VICON BodyLanguage
# -----------------------------------------------
:version 1.10
:name VICON
:units
  mass 1.0
  length 0.45
  angle deg
:documentation
   .ast/.asf automatically generated from VICON data using
   VICON BodyBuilder and BodyLanguage model FoxedUp or BRILLIANT.MOD
:root
   order TX TY TZ RX RY RZ
   axis XYZ
   position 0 0 0  
   orientation 0 0 0 
:bonedata
  begin
     id 1 
     name lhipjoint
     direction 0.602128 -0.715006 0.355257 
     length 2.21237 
     axis 0 0 0  XYZ
  end
  begin
     id 2 
     name lfemur
     direction 0.34202 -0.939693 0  
     length 6.71649  
     axis 0 0 20  XYZ
    dof rx ry rz
    limits (-160.0 20.0)
           (-70.0 70.0)
           (-60.0 70.0)
  end
  begin
     id 3 
     name ltibia
     direction 0.34202 -0.939693 0   
     length 6.97123   
     axis 0 0 20   XYZ
    dof rx
    limits (-10.0 170.0)
  end
  begin
     id 4 
     name lfoot
     direction 0.0655697 -0.180151 0.981451   
     length 1.80924   
     axis -90 7.62852e-016 20   XYZ
    dof rx rz
    limits (-45.0 90.0)
           (-70.0 20.0)
  end
  begin
     id 5 
     name ltoes
     direction 1.53545e-011 -4.21827e-011 1   
     length 0.916331   
     axis -90 7.62852e-016 20   XYZ
    dof rx
    limits (-90.0 20.0)
  end
  begin
     id 6 
     name rhipjoint
     direction -0.625414 -0.698792 0.347201   
     length 2.2637  
     axis 0 0 0  XYZ 
  end
  begin
     id 7 
     name rfemur
     direction -0.34202 -0.939693 0   
     length 7.07595   
     axis 0 0 -20   XYZ
    dof rx ry rz
    limits (-160.0 20.0)
           (-70.0 70.0)
           (-70.0 60.0)
  end
  begin
     id 8 
     name rtibia
     direction -0.34202 -0.939693 0   
     length 7.22924   
     axis 0 0 -20   XYZ
    dof rx
    limits (-10.0 170.0)
 end
 begin
     id 9 
     name rfoot
     direction -0.0766747 -0.210662 0.974547   
     length 1.98482  
     axis -90 -7.62852e-016 -20   XYZ
    dof rx rz
    limits (-45.0 90.0)
           (-20.0 70.0)
  end
  begin
     id 10 
     name rtoes
     direction -1.53532e-011 -4.21867e-011 1   
     length 0.999842   
     axis -90 -7.62852e-016 -20   XYZ
    dof rx
    limits (-90.0 20.0)
  end
  begin
     id 11 
     name lowerback
     direction -0.0224668 0.997354 -0.0691422   
     length 2.09945   
     axis 0 0 0   XYZ
    dof rx ry rz
    limits (-20.0 45.0)
           (-30.0 30.0)
           (-30.0 30.0)
  end
  begin
     id 12 
     name upperback
     direction 0.0134698 0.998451 -0.0539888   
     length 2.09758   
     axis 0 0 0   XYZ
    dof rx ry rz
    limits (-20.0 45.0)
           (-30.0 30.0)
           (-30.0 30.0)
  end
  begin
     id 13 
     name thorax
     direction 0.0241905 0.99948 -0.0213333   
     length 2.10428   
     axis 0 0 0   XYZ
    dof rx ry rz
    limits (-20.0 45.0)
           (-30.0 30.0)
           (-30.0 30.0)
  end
  begin
     id 14 
     name lowerneck
     direction -0.00866847 0.995978 0.0891737   
     length 1.3959   
     axis 0 0 0   XYZ
    dof rx ry rz
    limits (-20.0 45.0)
           (-30.0 30.0)
           (-30.0 30.0)
  end
  begin
     id 15 
     name upperneck
     direction 0.0680679 0.992203 0.104404   
     length 1.39452   
     axis 0 0 0   XYZ
    dof rx ry rz
    limits (-20.0 45.0)
           (-30.0 30.0)
           (-30.0 30.0)
  end
  begin
     id 16
     name head
     direction 0.0242216 0.999358 0.0264054  
     length 1.40433  
     axis 0 0 0   XYZ
    dof rx ry rz
    limits (-20.0 45.0)
           (-30.0 30.0)
           (-30.0 30.0)
  end
  begin
     id 17 
     name lclavicle
     direction 0.929368 0.362991 -0.0671771  
     length 3.04887  
     axis 0 0 0   XYZ
    dof ry rz
    limits (-20.0 10.0)
           (0.0 20.0)
  end
  begin
     id 18 
     name lhumerus
     direction 1 -4.48967e-011 -7.13741e-028   
     length 4.77195   
     axis -180 -30 -90   XYZ
    dof rx ry rz
    limits (-60.0 90.0)
           (-90.0 90.0)
           (-90.0 90.0)
  end
  begin
     id 19
     name lradius
     direction 1 -4.48977e-011 3.60404e-027   
     length 2.98444   
     axis -180 -30 -90   XYZ
    dof rx
    limits (-10.0 170.0)
  end
  begin
     id 20
     name lwrist
     direction 1 -4.48997e-011 7.54877e-027   
     length 1.49222   
     axis -7.18178e-015 90 90   XYZ
    dof ry
    limits (-180.0 0.0)
 end
  begin
     id 21 
     name lhand
     direction 1 -4.489e-011 1.51105e-026   
     length 0.992285   
     axis -9.63605e-015 90 90   XYZ
    dof rx rz
    limits (-90.0 90.0)
           (-45.0 45.0)
  end
  begin
     id 22 
     name lfingers
     direction 1 -4.48998e-011 3.01948e-026   
     length 0.800006   
     axis -1.92718e-014 90 90   XYZ
    dof rx
    limits (0.0 90.0)
  end
  begin
     id 23
     name lthumb
     direction 0.707107 -6.34881e-011 0.707107   
     length 1.14865   
     axis -90 45 -3.53137e-014   XYZ
    dof rx rz
    limits (-45.0 45.0)
           (-45.0 45.0)
  end
  begin
     id 24 
     name rclavicle
     direction -0.945672 0.324529 0.0196374   
     length 3.4236  
     axis 0 0 0   XYZ 
    dof ry rz
    limits (-10.0 20.0)
           (-20.0 0.0)
  end
  begin
     id 25 
     name rhumerus
     direction -1 -4.4896e-011 1.02757e-029  
     length 4.62052   
     axis -180 30 90   XYZ
    dof rx ry rz
    limits (-90.0 60.0)
           (-90.0 90.0)
           (-90.0 90.0)
  end
  begin
     id 26 
     name rradius
     direction -1 -4.48982e-011 3.85962e-027   
     length 2.95332   
     axis -180 30 90   XYZ
    dof rx
    limits (-10.0 170.0)
  end
  begin
     id 27 
     name rwrist
     direction -1 -4.48961e-011 7.55118e-027   
     length 1.47666   
     axis -7.18178e-015 -90 -90   XYZ
    dof ry
    limits (-180.0 0.0)
  end
  begin
     id 28
     name rhand
     direction -1 -4.48984e-011 1.50994e-026   
     length 0.990956   
     axis -9.63605e-015 -90 -90   XYZ
    dof rx rz
    limits (-90.0 90.0)
           (-45.0 45.0)
  end
  begin
     id 29
     name rfingers
     direction -1 -4.4892e-011 3.02158e-026   
     length 0.798934   
     axis -1.92718e-014 -90 -90   XYZ
    dof rx
    limits (0.0 90.0)
  end
  begin
     id 30
     name rthumb
     direction -0.707107 -6.34916e-011 0.707107   
     length 1.14711   
     axis -90 -45 3.53137e-014   XYZ
    dof rx rz
    limits (-45.0 45.0)
           (-45.0 45.0)
  end
:hierarchy
  begin
    root lhipjoint rhipjoint lowerback
    lhipjoint lfemur
    lfemur ltibia
    ltibia lfoot
    lfoot ltoes
    rhipjoint rfemur
    rfemur rtibia
    rtibia rfoot
    rfoot rtoes
    lowerback upperback
    upperback thorax
    thorax lowerneck lclavicle rclavicle
    lowerneck upperneck
    upperneck head
    lclavicle lhumerus
    lhumerus lradius
    lradius lwrist
    lwrist lhand lthumb
    lhand lfingers
    rclavicle rhumerus
    rhumerus rradius
    rradius rwrist
    rwrist rhand rthumb
    rhand rfingers
  end

#!OML:ASF H:\ManfredObstacles\Project 1\Capture day 1\Session 1\Male.ASF
:FULLY-SPECIFIED
:DEGREES
108
root 10.4708 16.0666 32.5638 -169.522 -11.1962 -179.447
lowerback -9.41472 -2.36613 -3.88877
upperback 1.91715 -2.86062 2.16128
thorax 7.63298 -1.63378 4.02194
lowerneck -0.30028 -2.85943 -5.2122
upperneck -7.06218 -3.69221 11.527
head -1.69785 -2.16842 4.37062
rclavicle -8.54774e-015 -3.77691e-015
rhumerus -36.0297 -25.8761 -73.1424
rradius 24.39
rwrist 34.8052
rhand -3.54874 -8.28474
rfingers 7.12502
rthumb 22.1872 -37.0314
lclavicle -8.54774e-015 -3.77691e-015
lhumerus -25.7102 11.3198 87.0899
lradius 17.883
lwrist -32.9815
lhand -7.7314 8.06643
lfingers 7.12502
lthumb 18.1673 37.238
rfemur -33.6473 -4.57097 17.1477
rtibia 27.7642
rfoot -11.763 2.22736
rtoes 27.0271
lfemur -5.12668 0.0662292 -20.8743
ltibia 12.0697
lfoot -12.8795 -6.28767
ltoes -4.43435
109
root 10.4727 16.0688 32.5183 -169.444 -11.1739 -179.304
lowerback -9.4269 -2.37738 -3.8072
upperback 1.86424 -2.89562 2.26709
thorax 7.58832 -1.64941 4.08289
lowerneck -0.220947 -2.83743 -5.1398
upperneck -7.21285 -3.6593 11.4509
head -1.76139 -2.15906 4.33963
rclavicle -2.20651e-014 -1.55052e-014
rhumerus -36.1534 -25.7745 -72.9963
rradius 24.4587
rwrist 34.7195
rhand -3.45705 -8.1182
rfingers 7.12502
rthumb 22.2753 -36.8544
lclavicle -2.20651e-014 -1.55052e-014
lhumerus -25.5425 10.653 87.5705
lradius 18.0698
lwrist -32.6108
lhand -7.22483 8.53034
lfingers 7.12502
lthumb 18.6546 37.6559
rfemur -33.758 -4.96996 17.5284
rtibia 28.0151
rfoot -11.7449 2.6625
rtoes 25.4264
lfemur -4.81372 -0.0186982 -20.6775
ltibia 11.6034
lfoot -12.9327 -6.13571
ltoes -4.91473
110
root 10.4766 16.0693 32.4691 -169.318 -11.2144 -179.136
lowerback -9.47326 -2.4435 -3.6744
upperback 1.81124 -3.01053 2.3825
thorax 7.56934 -1.70285 4.1105
lowerneck -0.303825 -2.78641 -5.02156
upperneck -7.11562 -3.63102 10.9346
head -1.93932 -2.1165 4.61511
rclavicle -7.65321e-015 5.1684e-015
rhumerus -36.1421 -25.5532 -72.9566
rradius 24.4582
rwrist 34.5779
rhand -3.42094 -8.01617
rfingers 7.12502
rthumb 22.3099 -36.7482
lclavicle -7.65321e-015 5.1684e-015
lhumerus -25.4534 10.1279 87.9699
lradius 18.3575
lwrist -32.3162
lhand -6.86151 8.63686
lfingers 7.12502
lthumb 19.004 37.7285
rfemur -33.9055 -5.11708 17.8518
rtibia 28.3359
rfoot -11.932 2.88998
rtoes 24.8125
lfemur -4.50132 -0.116523 -20.424
ltibia 11.0336
lfoot -12.8951 -6.04367
ltoes -4.90397
111
root 10.4842 16.0707 32.4176 -169.075 -11.1868 -179.01
lowerback -9.6365 -2.52943 -3.62337
upperback 1.7576 -3.14044 2.51461
thorax 7.62446 -1.76918 4.19595
lowerneck -0.494596 -2.7566 -5.0739
upperneck -7.08859 -3.59306 10.9015
head -1.89843 -2.09147 4.60708
rclavicle 5.51627e-015 3.77691e-015
rhumerus -35.9813 -25.2879 -72.9754
rradius 24.3761
rwrist 34.6111
rhand -3.4897 -7.89806
rfingers 7.12502
rthumb 22.2439 -36.638
lclavicle 5.51627e-015 3.77691e-015
lhumerus -25.2658 9.89026 88.3676
lradius 18.5522
lwrist -32.4085
lhand -6.8022 8.44833
lfingers 7.12502
lthumb 19.061 37.5343
rfemur -34.2255 -5.24214 18.1558
rtibia 28.7077
rfoot -12.2181 3.14345
rtoes 25.1975
lfemur -4.27348 -0.133047 -20.2175
ltibia 10.3965
lfoot -12.8239 -5.89954
ltoes -5.17244
112
root 10.496 16.0727 32.3606 -168.867 -11.1192 -178.939
lowerback -9.74927 -2.61105 -3.74821
upperback 1.68837 -3.24784 2.68433
thorax 7.64518 -1.83288 4.42688
lowerneck -0.581577 -2.72673 -5.22772
upperneck -7.0052 -3.55375 10.962
head -1.85534 -2.06479 4.65501
rclavicle 3.64273e-014 -2.72335e-014
rhumerus -35.9597 -24.9767 -72.912
rradius 24.4408
rwrist 34.6846
rhand -3.51004 -7.83463
rfingers 7.12502
rthumb 22.2244 -36.5769
lclavicle 3.64273e-014 -2.72335e-014
lhumerus -25.1016 9.83557 88.8071
lradius 18.7684
lwrist -32.8625
lhand -6.5376 8.42627
lfingers 7.12502
lthumb 19.3155 37.487
rfemur -34.5075 -5.42158 18.426
rtibia 29.1184
rfoot -12.4771 3.51312
rtoes 25.1113
lfemur -3.93355 -0.482814 -20.0493
ltibia 9.69081
lfoot -12.8111 -5.34238
ltoes -5.78362
113
root 10.5105 16.0713 32.2973 -168.73 -11.0544 -178.802
lowerback -9.70673 -2.64578 -3.68587
upperback 1.54681 -3.31091 2.75921
thorax 7.47656 -1.85838 4.46384
lowerneck -0.586097 -2.65881 -5.30703
upperneck -7.07647 -3.42655 11.443
head -1.67761 -2.02792 4.35536
rclavicle 1.10822e-014 -2.00773e-014
rhumerus -36.2271 -25.0671 -72.7274
rradius 24.5076
rwrist 34.9232
rhand -3.39937 -7.71164
rfingers 7.12502
rthumb 22.3306 -36.4412
lclavicle 1.10822e-014 -2.00773e-014
lhumerus -25.1194 9.34512 89.1335
lradius 19.0683
lwrist -33.1186
lhand -5.92373 8.48799
lfingers 7.12502
lthumb 19.9057 37.4885
rfemur -34.666 -5.34289 18.6782
rtibia 29.5509
rfoot -12.8211 3.76951
rtoes 24.5829
lfemur -3.42077 -0.819629 -19.7951
ltibia 8.83909
lfoot -12.7666 -4.7763
ltoes -6.06498
114
root 10.5263 16.0703 32.2292 -168.567 -11.0531 -178.708
lowerback -9.68077 -2.69403 -3.5713
upperback 1.40398 -3.39088 2.76455
thorax 7.31023 -1.88748 4.3936
lowerneck -0.509729 -2.59394 -5.28857
upperneck -7.16709 -3.33915 11.5388
head -1.72253 -1.99552 4.38445
rclavicle 2.0773e-014 5.36719e-015
rhumerus -36.5253 -25.3104 -72.5551
rradius 24.5231
rwrist 35.1081
rhand -3.34828 -7.58074
rfingers 7.12502
rthumb 22.3797 -36.3044
lclavicle 2.0773e-014 5.36719e-015
lhumerus -25.0133 8.55897 89.4647
lradius 19.2726
lwrist -32.9786
lhand -5.45557 8.32662
lfingers 7.12502
lthumb 20.3556 37.2798
rfemur -34.8027 -5.37005 18.9147
rtibia 29.948
rfoot -13.3012 4.03816
rtoes 24.1695
lfemur -2.92073 -1.231 -19.5733
ltibia 7.99401
lfoot -12.7409 -4.10055
ltoes -6.58452
115
root 10.544 16.0709 32.1546 -168.494 -11.1481 -178.673
lowerback -9.71463 -2.80951 -3.62491
upperback 1.39545 -3.54564 2.84278
thorax 7.34657 -1.96899 4.48001
lowerneck -0.551276 -2.5857 -5.24275
upperneck -7.22035 -3.32927 11.5354
head -1.73307 -1.99461 4.37605
rclavicle -8.29926e-015 1.13307e-014
rhumerus -36.576 -25.3212 -72.4819
rradius 24.5586
rwrist 34.9733
rhand -3.35965 -7.36949
rfingers 7.12502
rthumb 22.3688 -36.0945
lclavicle -8.29926e-015 1.13307e-014
lhumerus -24.637 7.84618 89.9657
lradius 19.375
lwrist -32.563
lhand -5.4185 8.11821
lfingers 7.12502
lthumb 20.3913 37.0676
rfemur -34.7672 -5.62196 19.1576
rtibia 30.2481
rfoot -13.7094 4.30192
rtoes 23.487
lfemur -2.43455 -1.7481 -19.4119
ltibia 7.44534
lfoot -12.8251 -3.26342
ltoes -8.29394
116
root 10.5663 16.0706 32.0727 -168.602 -11.2825 -178.394
lowerback -9.60571 -2.93378 -3.4754
upperback 1.40431 -3.75075 3.00418
thorax 7.31813 -2.06998 4.5362
lowerneck -0.702125 -2.57858 -5.35896
upperneck -7.0324 -3.32568 11.6824
head -1.64771 -1.98548 4.4344
rclavicle 2.5345e-015 -2.38542e-015
rhumerus -36.6726 -25.1828 -72.4613
rradius 24.6735
rwrist 34.7743
rhand -3.22975 -7.03951
rfingers 7.12502
rthumb 22.4935 -35.7495
lclavicle 2.5345e-015 -2.38542e-015
lhumerus -24.382 7.05702 90.4787
lradius 19.5707
lwrist -31.8655
lhand -5.57852 8.03636
lfingers 7.12502
lthumb 20.2375 37.0021
rfemur -34.4903 -5.67433 19.6217
rtibia 30.4465
rfoot -13.8884 4.37344
rtoes 21.9368
lfemur -1.92701 -2.25503 -18.9616
ltibia 7.20147
lfoot -12.952 -2.55529
ltoes -9.97927
117
root 10.5917 16.071 31.9828 -168.697 -11.3681 -177.982
lowerback -9.51062 -3.02336 -3.13054
upperback 1.36628 -3.93059 3.13735
thorax 7.22812 -2.14831 4.45632
lowerneck -0.815245 -2.50754 -5.45776
upperneck -6.92336 -3.23603 11.9068
head -1.598 -1.94228 4.51575
rclavicle -4.96962e-015 -2.16675e-014
rhumerus -36.9093 -25.1748 -72.4245
rradius 24.7805
rwrist 34.7447
rhand -2.98329 -6.97473
rfingers 7.12502
rthumb 22.73 -35.6559
lclavicle -4.96962e-015 -2.16675e-014
lhumerus -24.174 6.26486 90.8142
lradius 19.7424
lwrist -31.1268
lhand -5.52708 8.04333
lfingers 7.12502
lthumb 20.2869 37.0038
rfemur -34.1866 -5.55271 20.2038
rtibia 30.5685
rfoot -13.9411 4.35199
rtoes 18.9619
lfemur -1.53469 -2.68625 -18.3373
ltibia 7.12243
lfoot -13.0544 -2.03434
ltoes -10.5524
118
root 10.6203 16.0756 31.8853 -168.725 -11.4464 -177.702
lowerback -9.54078 -3.09381 -2.90535
upperback 1.32328 -4.05903 3.19635
thorax 7.20101 -2.20405 4.36918
lowerneck -0.855658 -2.47149 -5.32664
upperneck -6.80627 -3.19725 11.9543
head -1.56176 -1.92531 4.50572
rclavicle 1.1281e-014 -2.38542e-015
rhumerus -37.1661 -25.5441 -72.2218
rradius 24.6755
rwrist 34.9209
rhand -2.8327 -7.12453
rfingers 7.12502
rthumb 22.8745 -35.7879
lclavicle 1.1281e-014 -2.38542e-015
lhumerus -23.9598 5.39689 91.094
lradius 19.9362
lwrist -30.4269
lhand -5.4646 8.17985
lfingers 7.12502
lthumb 20.347 37.134
rfemur -33.8853 -5.35397 20.6238
rtibia 30.6474
rfoot -14.505 4.29336
rtoes 21.6057
lfemur -1.1709 -3.13651 -17.8499
ltibia 7.05134
lfoot -13.2425 -1.42601
ltoes -11.925
